# xmcd
#
# Track frame offsets:
#	150
#	19523
#	42480
#	65481
#	87252
#	105553
#	123762
#	142172
#
# Disc length: 2339 seconds
#
# Revision: 0
# Processed by: cddbd v1.5.2PL0 Copyright (c) Steve Scherf et al.
# Submitted via: EZCDAudioConverter 1.1.0.1
#
DISCID=67092108
DTITLE=Husky Rescue - Long Lost Friend
DYEAR=2013
DGENRE=
TTITLE0=Restless Feet
TTITLE1=Under Friendly Fire
TTITLE2=River
TTITLE3=Colors
TTITLE4=June
TTITLE5=Mountains Only Know
TTITLE6=The Long Lost Friend
TTITLE7=Tree House
EXTD=
EXTT0=
EXTT1=
EXTT2=
EXTT3=
EXTT4=
EXTT5=
EXTT6=
EXTT7=
PLAYORDER=
